<svg width="17" height="17" viewBox="0 0 17 17" fill="none" xmlns="http://www.w3.org/2000/svg">
<path d="M16.0615 0.141602H0.938542C0.420573 0.141602 0 0.537435 0 1.02493V15.2583C0 15.7458 0.420573 16.1416 0.938542 16.1416H8.5V9.80827H6.46797V7.47494H8.5V5.74994C8.5 3.68327 10.0229 2.55827 11.9841 2.55827C12.9227 2.55827 13.932 2.62494 14.1667 2.6541V4.81244H12.6039C11.537 4.81244 11.3333 5.28744 11.3333 5.98744V7.47494H13.8745L13.5424 9.80827H11.3333V16.1416H16.0615C16.5794 16.1416 17 15.7458 17 15.2583V1.02493C17 0.537435 16.5794 0.141602 16.0615 0.141602Z" fill="black"/>
</svg>
