<svg width="17" height="17" viewBox="0 0 17 17" fill="none" xmlns="http://www.w3.org/2000/svg">
<path d="M8.49771 4.03683C6.08425 4.03683 4.13648 5.87007 4.13648 8.1416C4.13648 10.4131 6.08425 12.2464 8.49771 12.2464C10.9112 12.2464 12.859 10.4131 12.859 8.1416C12.859 5.87007 10.9112 4.03683 8.49771 4.03683ZM8.49771 10.8094C6.93694 10.8094 5.66323 9.61059 5.66323 8.1416C5.66323 6.67261 6.93694 5.4738 8.49771 5.4738C10.0585 5.4738 11.3322 6.67261 11.3322 8.1416C11.3322 9.61059 10.0585 10.8094 8.49771 10.8094ZM13.0376 2.91207C12.4741 2.91207 12.019 3.34036 12.019 3.87072C12.019 4.40107 12.4741 4.82936 13.0376 4.82936C13.6011 4.82936 14.0561 4.40308 14.0561 3.87072C14.054 3.33836 13.6011 2.91207 13.0376 2.91207ZM16.9991 8.1416C16.9991 7.03686 17.0097 5.94212 16.9438 4.83937C16.8778 3.55851 16.5674 2.42174 15.5722 1.4851C14.575 0.54647 13.3693 0.256274 12.0084 0.194232C10.8346 0.13219 9.67149 0.142197 8.49984 0.142197C7.32607 0.142197 6.16293 0.13219 4.99129 0.194232C3.63039 0.256274 2.4226 0.548471 1.42745 1.4851C0.430165 2.42374 0.121837 3.55851 0.0559188 4.83937C-0.00999953 5.94412 0.000632484 7.03886 0.000632484 8.1416C0.000632484 9.24435 -0.00999953 10.3411 0.0559188 11.4438C0.121837 12.7247 0.432291 13.8615 1.42745 14.7981C2.42473 15.7367 3.63039 16.0269 4.99129 16.089C6.16506 16.151 7.3282 16.141 8.49984 16.141C9.67361 16.141 10.8368 16.151 12.0084 16.089C13.3693 16.0269 14.5771 15.7347 15.5722 14.7981C16.5695 13.8595 16.8778 12.7247 16.9438 11.4438C17.0118 10.3411 16.9991 9.24635 16.9991 8.1416ZM15.1278 12.8608C14.9726 13.225 14.7855 13.4972 14.4857 13.7774C14.1858 14.0596 13.8988 14.2357 13.5118 14.3818C12.3933 14.8001 9.7374 14.706 8.49771 14.706C7.25803 14.706 4.60003 14.8001 3.48154 14.3838C3.09454 14.2377 2.80535 14.0616 2.50765 13.7794C2.20783 13.4972 2.02071 13.227 1.86548 12.8628C1.42319 11.8081 1.52313 9.30839 1.52313 8.1416C1.52313 6.97481 1.42319 4.47312 1.86548 3.42041C2.02071 3.05617 2.20783 2.78398 2.50765 2.50379C2.80748 2.2236 3.09454 2.04548 3.48154 1.89938C4.60003 1.4831 7.25803 1.57717 8.49771 1.57717C9.7374 1.57717 12.3954 1.4831 13.5139 1.89938C13.9009 2.04548 14.1901 2.2216 14.4878 2.50379C14.7876 2.78598 14.9747 3.05617 15.1299 3.42041C15.5722 4.47312 15.4723 6.97481 15.4723 8.1416C15.4723 9.30839 15.5722 11.8081 15.1278 12.8608Z" fill="black"/>
</svg>
