<svg width="17" height="14" viewBox="0 0 17 14" fill="none" xmlns="http://www.w3.org/2000/svg">
<path d="M17 1.68583C16.3748 1.93968 15.6945 2.12237 14.9938 2.19352C15.717 1.78776 16.2666 1.14737 16.526 0.385832C15.8579 0.760832 15.102 1.03583 14.3155 1.17814C13.678 0.537755 12.773 0.141602 11.7699 0.141602C9.8392 0.141602 8.2865 1.61468 8.2865 3.42237C8.2865 3.67622 8.31919 3.93006 8.37231 4.17429C5.48143 4.03199 2.90314 2.73199 1.18904 0.741602C0.886672 1.23006 0.715058 1.78776 0.715058 2.39737C0.715058 3.53583 1.33001 4.53968 2.26776 5.13006C1.69571 5.10891 1.15635 4.95699 0.692585 4.71276V4.75314C0.692585 6.34737 1.8898 7.66853 3.4854 7.97237C3.19325 8.04353 2.88066 8.08391 2.56808 8.08391C2.34131 8.08391 2.12679 8.06276 1.91023 8.03391C2.35152 9.33391 3.63658 10.2781 5.16681 10.3089C3.96959 11.1916 2.47002 11.7108 0.841726 11.7108C0.549573 11.7108 0.279894 11.7012 0 11.6704C1.54453 12.6031 3.37712 13.1416 5.35068 13.1416C11.7576 13.1416 15.2634 8.14545 15.2634 3.80891C15.2634 3.6666 15.2634 3.52429 15.2532 3.38199C15.9315 2.91468 16.526 2.33583 17 1.68583Z" fill="black"/>
</svg>
